<svg width="35" height="35" viewBox="0 0 35 35" fill="none" xmlns="http://www.w3.org/2000/svg">
<path d="M18.4286 1.28572C18.4286 0.982613 18.3082 0.691923 18.0939 0.477596C17.8795 0.263268 17.5888 0.14286 17.2857 0.14286C16.9826 0.14286 16.6919 0.263268 16.4776 0.477596C16.2633 0.691923 16.1429 0.982613 16.1429 1.28572V16.1429H1.28574C0.982636 16.1429 0.691946 16.2633 0.477619 16.4776C0.263291 16.6919 0.142883 16.9826 0.142883 17.2857C0.142883 17.5888 0.263291 17.8795 0.477619 18.0938C0.691946 18.3082 0.982636 18.4286 1.28574 18.4286H16.1429V33.2857C16.1429 33.5888 16.2633 33.8795 16.4776 34.0938C16.6919 34.3082 16.9826 34.4286 17.2857 34.4286C17.5888 34.4286 17.8795 34.3082 18.0939 34.0938C18.3082 33.8795 18.4286 33.5888 18.4286 33.2857V18.4286H33.2857C33.5888 18.4286 33.8795 18.3082 34.0939 18.0938C34.3082 17.8795 34.4286 17.5888 34.4286 17.2857C34.4286 16.9826 34.3082 16.6919 34.0939 16.4776C33.8795 16.2633 33.5888 16.1429 33.2857 16.1429H18.4286V1.28572Z" fill="#002B53"/>
</svg>
