<svg width="35" height="39" viewBox="0 0 35 39" fill="none" xmlns="http://www.w3.org/2000/svg">
<path d="M18.0553 33.8715C18.2344 35.1075 18.6285 36.2717 19.1837 37.3106C18.1986 37.5077 17.1776 37.6151 16.1208 37.6151C11.8453 37.6151 7.7449 35.9167 4.72167 32.8935C1.69843 29.8702 0 25.7699 0 21.4944C0 17.2189 1.69843 13.1185 4.72167 10.0953C7.7449 7.07203 11.8453 5.37359 16.1208 5.37359C19.9181 5.37359 23.411 6.69908 26.1873 8.95599L28.7308 6.37666C29.6443 7.16479 30.4504 7.98874 31.2564 8.90225L28.7129 11.4458C30.9982 14.2962 32.243 17.8409 32.2416 21.4944V22.1213C31.0952 21.7272 29.913 21.4944 28.6592 21.4944C28.6592 14.5624 23.0527 8.95599 16.1208 8.95599C9.18884 8.95599 3.58239 14.5624 3.58239 21.4944C3.58239 28.4263 9.18884 34.0328 16.1208 34.0328C16.7835 34.0328 17.4104 33.9611 18.0553 33.8715ZM14.3296 23.2856H17.912V12.5384H14.3296V23.2856ZM21.4944 0H10.7472V3.58239H21.4944V0ZM35 28.4442L32.4565 25.9186L28.6592 29.716L24.8618 25.9186L22.3362 28.4442L26.1336 32.2416L22.3362 36.0389L24.8618 38.5824L28.6592 34.7671L32.4565 38.5824L35 36.0389L31.1847 32.2416L35 28.4442V28.4442Z" fill="#F8485E"/>
</svg>
