<svg width="38" height="38" viewBox="0 0 38 38" fill="none" xmlns="http://www.w3.org/2000/svg">
<path fill-rule="evenodd" clip-rule="evenodd" d="M31.725 37.75C32.79 37.75 33.8147 37.3422 34.5884 36.6103C35.3622 35.8784 35.8263 34.878 35.8854 33.8146L37.5062 4.64792C37.5377 4.08213 37.4534 3.51587 37.2585 2.98377C37.0636 2.45166 36.7623 1.9649 36.3728 1.55325C35.9834 1.1416 35.5141 0.813706 34.9937 0.589623C34.4732 0.36554 33.9125 0.249977 33.3458 0.25H4.65414C4.08756 0.250118 3.52696 0.365786 3.00661 0.589932C2.48626 0.814078 2.01709 1.14199 1.62778 1.55363C1.23847 1.96527 0.937198 2.45198 0.742388 2.98401C0.547578 3.51604 0.46332 4.08221 0.494765 4.64792L2.11456 33.8146C2.17367 34.878 2.63776 35.8784 3.41151 36.6103C4.18526 37.3422 5.20991 37.75 6.27497 37.75H31.725ZM6.27497 35.6667H31.725C32.2577 35.6667 32.7701 35.4626 33.157 35.0965C33.5439 34.7303 33.7759 34.2298 33.8052 33.6979L35.426 4.53125C35.4416 4.24844 35.3993 3.96542 35.3018 3.6995C35.2043 3.43357 35.0536 3.19031 34.8589 2.9846C34.6642 2.77889 34.4296 2.61504 34.1695 2.50306C33.9093 2.39108 33.629 2.33333 33.3458 2.33333H4.65414C4.3709 2.33333 4.09064 2.39108 3.83047 2.50306C3.57031 2.61504 3.33571 2.77889 3.14101 2.9846C2.94632 3.19031 2.79561 3.43357 2.69811 3.6995C2.60061 3.96542 2.55835 4.24844 2.57393 4.53125L4.19476 33.6979C4.22406 34.2298 4.456 34.7303 4.8429 35.0965C5.2298 35.4626 5.74227 35.6667 6.27497 35.6667Z" fill="#002B53"/>
</svg>
